<svg xmlns="http://www.w3.org/2000/svg" xmlns:xlink="http://www.w3.org/1999/xlink" width="512" height="512" viewBox="0 0 512 512">
  <defs>
    <path id="icon_512x512-nu-a" d="M100.758063,300 C105.948538,300 111.833405,296.166386 113.908917,291.422213 L172.248762,158.069917 C174.321303,153.332536 177.667368,153.325745 179.728999,158.069917 L237.67868,291.422213 C239.73736,296.159594 245.61106,300 250.804437,300 L344.508063,300 C349.698538,300 352.222845,296.152216 350.154752,291.425146 L226.407748,8.57485353 C224.335853,3.8390927 218.445879,0 213.28119,0 L138.28131,0 C133.103607,0 127.222845,3.84778355 125.154752,8.57485353 L1.40774842,291.425146 C-0.664146946,296.160907 1.86106043,300 7.05443714,300 L100.758063,300 Z"/>
    <path id="icon_512x512-nu-d" d="M283.963816,140.131579 L300.730437,178.455284 L237.331338,290.622918 L210.937498,229.6875 C212.231917,232.276335 215.163297,231.865604 217.48606,228.768586 L283.963816,140.131579 Z"/>
    <filter id="icon_512x512-nu-c" width="169.8%" height="152.2%" x="-33.8%" y="-25.5%" filterUnits="objectBoundingBox">
      <feMorphology in="SourceAlpha" operator="dilate" radius="3.5" result="shadowSpreadOuter1"/>
      <feOffset in="shadowSpreadOuter1" result="shadowOffsetOuter1"/>
      <feGaussianBlur in="shadowOffsetOuter1" result="shadowBlurOuter1" stdDeviation="7"/>
      <feColorMatrix in="shadowBlurOuter1" values="0 0 0 0 0   0 0 0 0 0   0 0 0 0 0  0 0 0 0.2 0"/>
    </filter>
    <path id="icon_512x512-nu-e" d="M0.757176884,61.2801224 L25.9362624,3.72616683 C28.0088031,-1.01121385 31.3548678,-1.01800525 33.416499,3.72616683 C33.416499,3.72616683 56.444346,56.5818736 62.940198,71.4820223 C48.6179539,47.411343 37.7851602,29.9206849 31.8486874,29.562233 C30.4142997,29.4756228 26.3273113,37.9900162 25.936898,38.8824168 L9.40911904,76.6613527 L0.757176884,61.2801224 Z"/>
    <path id="icon_512x512-nu-h" d="M-44.5544371,146.34375 C-39.3639617,146.34375 -33.479095,142.510136 -31.4035832,137.765963 L26.9362624,4.41366683 C29.0088031,-0.323713854 32.3548678,-0.330505254 34.416499,4.41366683 C34.416499,4.41366683 55.3539579,52.5944018 65.8226874,76.6847693 L92.3661802,137.765963 C94.4248602,142.503344 100.29856,146.34375 105.491937,146.34375 L199.195563,146.34375 C204.386038,146.34375 206.910345,142.495966 204.842252,137.768896 C204.842252,137.768896 158.951782,32.8763947 136.006547,-19.5698562 C117.702781,-61.4070363 81.0952484,-145.081396 81.0952484,-145.081396 C79.0233531,-149.817157 73.1333795,-153.65625 67.9686902,-153.65625 L-7.03119016,-153.65625 C-12.2088927,-153.65625 -18.0896553,-149.808466 -20.1577484,-145.081396 L-143.904752,137.768896 C-145.976647,142.504657 -143.45144,146.34375 -138.258063,146.34375 L-44.5544371,146.34375 Z"/>
    <filter id="icon_512x512-nu-g" width="114.6%" height="117%" x="-7.3%" y="-8.5%" filterUnits="objectBoundingBox">
      <feMorphology in="SourceAlpha" operator="dilate" radius="1.5" result="shadowSpreadOuter1"/>
      <feOffset in="shadowSpreadOuter1" result="shadowOffsetOuter1"/>
      <feGaussianBlur in="shadowOffsetOuter1" result="shadowBlurOuter1" stdDeviation="7"/>
      <feColorMatrix in="shadowBlurOuter1" values="0 0 0 0 0   0 0 0 0 0   0 0 0 0 0  0 0 0 0.3 0"/>
    </filter>
  </defs>
  <g fill="none" fill-rule="evenodd">
    <circle cx="256" cy="256" r="256" fill="#404040"/>
    <g transform="translate(80 83)">
      <path fill="#22C7F0" d="M100.758063,300 C105.948538,300 111.833405,296.166386 113.908917,291.422213 L172.248762,158.069917 C174.321303,153.332536 177.667368,153.325745 179.728999,158.069917 L237.67868,291.422213 C239.73736,296.159594 245.61106,300 250.804437,300 L344.508063,300 C349.698538,300 352.222845,296.152216 350.154752,291.425146 L226.407748,8.57485353 C224.335853,3.8390927 218.445879,0 213.28119,0 L138.28131,0 C133.103607,0 127.222845,3.84778355 125.154752,8.57485353 L1.40774842,291.425146 C-0.664146946,296.160907 1.86106043,300 7.05443714,300 L100.758063,300 Z"/>
      <mask id="icon_512x512-nu-b" fill="#fff">
        <use xlink:href="#icon_512x512-nu-a"/>
      </mask>
      <g fill="#000" mask="url(#icon_512x512-nu-b)">
        <use filter="url(#icon_512x512-nu-c)" xlink:href="#icon_512x512-nu-d"/>
      </g>
      <path fill="#77E300" d="M350.438524,90.5102083 C352.36647,87.0992256 350.761241,84.375 346.881675,84.375 L332.805825,84.375 C328.925678,84.375 323.898692,86.885077 321.57644,89.9814139 L217.48606,228.768586 C215.163297,231.865604 212.231917,232.276335 210.937498,229.6875 C210.603349,228.935664 179.728999,158.069917 179.728999,158.069917 C177.667368,153.325745 174.321303,153.332536 172.248762,158.069917 L147.069677,215.623872 L191.092793,293.887189 C192.994737,297.268423 197.689192,300 201.584712,300 L224.977785,300 C228.898519,300 233.576386,297.266294 235.482411,293.894097 L236.792215,291.57675 L350.438524,90.5102083 Z"/>
      <g transform="translate(146.313 154.344)">
        <mask id="icon_512x512-nu-f" fill="#fff">
          <use xlink:href="#icon_512x512-nu-e"/>
        </mask>
        <g fill="#000" mask="url(#icon_512x512-nu-f)">
          <use filter="url(#icon_512x512-nu-g)" xlink:href="#icon_512x512-nu-h"/>
        </g>
      </g>
    </g>
  </g>
</svg>
